#!OML:ASF H:\Terrain\Patient Classification 1\Walking\liu\liu.ASF
:FULLY-SPECIFIED
:DEGREES
111
root 8.31768 15.5509 -14.7439 8.98939 2.69272 -0.927995
lowerback -0.229293 -3.66026 -0.877698
upperback 0.25543 -4.90586 4.20872
thorax 0.835558 -2.47838 4.76436
lowerneck -22.7389 -2.29423 -12.8001
upperneck 14.3586 -1.63579 13.1873
head 8.41139 -0.103491 6.45512
rclavicle 5.1684e-015 -9.54166e-015
rhumerus -56.7797 -18.5059 -41.5402
rradius 14.0394
rwrist 18.4586
rhand -29.6281 -25.3513
rfingers 7.12502
rthumb -2.95835 -55.3105
lclavicle 5.1684e-015 -9.54166e-015
lhumerus -12.4113 -25.5744 85.9743
lradius 44.4769
lwrist 15.8503
lhand -17.209 -28.2789
lfingers 7.12502
lthumb 9.03366 1.50767
rfemur -45.9023 0.320753 24.7349
rtibia 52.2157
rfoot -15.3423 0.576956
rtoes -13.0619
lfemur 3.72658 12.0522 -14.2935
ltibia 54.3751
lfoot 2.36854 12.6839
ltoes -9.93079
112
root 8.30392 15.6042 -14.4981 9.31478 2.31767 -1.21635
lowerback -0.779695 -3.41432 -0.67773
upperback 0.331709 -4.58929 4.20385
thorax 1.17747 -2.32304 4.61484
lowerneck -22.7957 -2.33163 -12.4803
upperneck 14.3931 -1.75626 13.0301
head 8.44581 -0.156661 6.32972
rclavicle 3.67752e-014 -9.54166e-015
rhumerus -55.66 -18.1266 -43.9201
rradius 14.2082
rwrist 17.5861
rhand -29.3628 -24.1084
rfingers 7.12502
rthumb -2.7021 -54.071
lclavicle 3.67752e-014 -9.54166e-015
lhumerus -13.4641 -25.5145 86.671
lradius 44.146
lwrist 15.3894
lhand -16.9442 -28.0144
lfingers 7.12502
lthumb 9.28915 1.76099
rfemur -44.9605 0.446083 25.2626
rtibia 51.7457
rfoot -16.0612 0.913157
rtoes -13.5055
lfemur 1.02013 12.735 -14.0829
ltibia 57.7999
lfoot 0.40569 13.1404
ltoes -14.7431
113
root 8.29356 15.6625 -14.2831 9.34081 2.73459 -1.05374
lowerback -0.841335 -3.45052 -0.796406
upperback 0.580381 -4.64356 4.09444
thorax 1.47287 -2.35692 4.55293
lowerneck -22.6913 -2.44839 -12.3361
upperneck 13.9529 -1.93385 12.9902
head 8.30425 -0.237513 6.24944
rclavicle 3.43897e-014 -3.18055e-015
rhumerus -54.1328 -17.9936 -46.3782
rradius 14.2611
rwrist 16.9188
rhand -29.4374 -23.3792
rfingers 7.12502
rthumb -2.77409 -53.3409
lclavicle 3.43897e-014 -3.18055e-015
lhumerus -14.1539 -25.5407 87.1676
lradius 43.8107
lwrist 15.3939
lhand -16.7953 -27.443
lfingers 7.12502
lthumb 9.4329 2.3259
rfemur -43.7847 -0.077389 25.2274
rtibia 51.2841
rfoot -16.789 1.03088
rtoes -14.2195
lfemur -1.79249 12.3133 -14.5199
ltibia 60.8784
lfoot -2.68986 14.0345
ltoes -25.7792
114
root 8.28054 15.7178 -14.0552 9.33887 2.41385 -1.11068
lowerback -0.811236 -3.19225 -0.860974
upperback 0.70542 -4.30085 4.0803
thorax 1.55866 -2.18831 4.58304
lowerneck -22.0666 -2.64383 -12.6746
upperneck 13.4098 -2.16479 13.199
head 8.05656 -0.361145 6.32367
rclavicle 3.02153e-014 -2.46493e-014
rhumerus -52.7891 -18.1796 -48.1641
rradius 14.1998
rwrist 17.035
rhand -29.3779 -23.8664
rfingers 7.12502
rthumb -2.71666 -53.8289
lclavicle 3.02153e-014 -2.46493e-014
lhumerus -15.2257 -25.4358 87.947
lradius 43.5011
lwrist 15.1897
lhand -16.6893 -27.0653
lfingers 7.12502
lthumb 9.53511 2.69897
rfemur -42.5677 0.0799409 25.3868
rtibia 50.8508
rfoot -17.399 1.2616
rtoes -14.3589
lfemur -4.19666 12.6479 -14.7225
ltibia 63.5019
lfoot -4.96457 14.4882
ltoes -32.7073
115
root 8.26709 15.784 -13.8343 9.6119 2.29804 -1.00057
lowerback -0.663964 -2.97843 -1.15796
upperback 0.491471 -4.00464 4.14925
thorax 1.25558 -2.03671 4.84646
lowerneck -21.832 -2.78914 -12.8417
upperneck 13.4334 -2.32031 13.0864
head 8.0464 -0.462215 6.28887
rclavicle -3.35946e-014 -7.95139e-016
rhumerus -51.5176 -17.6804 -50.1467
rradius 14.287
rwrist 16.5527
rhand -29.4446 -24.2856
rfingers 7.12502
rthumb -2.78112 -54.2472
lclavicle -3.35946e-014 -7.95139e-016
lhumerus -16.7257 -25.0669 89.0027
lradius 43.1564
lwrist 14.7675
lhand -16.3935 -27.0814
lfingers 7.12502
lthumb 9.82056 2.66961
rfemur -41.656 0.0679226 25.3527
rtibia 50.3818
rfoot -17.9268 1.47258
rtoes -13.888
lfemur -6.95134 12.5485 -15.2926
ltibia 65.7393
lfoot -6.52485 14.5861
ltoes -33.2716
116
root 8.25406 15.8417 -13.6134 9.87274 2.13763 -0.700211
lowerback -0.270056 -2.73203 -1.90698
upperback 0.0929403 -3.65927 4.34377
thorax 0.652646 -1.85393 5.51589
lowerneck -21.659 -2.91268 -12.8927
upperneck 13.694 -2.43555 12.6726
head 8.11267 -0.56692 6.13995
rclavicle -1.82882e-014 4.77083e-015
rhumerus -50.3146 -15.469 -52.9996
rradius 14.793
rwrist 14.2637
rhand -30.0432 -23.8487
rfingers 7.12502
rthumb -3.35922 -53.802
lclavicle -1.82882e-014 4.77083e-015
lhumerus -18.5935 -24.5401 90.4868
lradius 42.7555
lwrist 14.2188
lhand -16.2786 -27.1295
lfingers 7.12502
lthumb 9.93136 2.61626
rfemur -40.7462 0.168706 25.0589
rtibia 49.8906
rfoot -18.5491 1.5967
rtoes -13.3905
lfemur -9.65993 12.3654 -16.0799
ltibia 67.5974
lfoot -7.35665 14.2034
ltoes -30.0265
